# xmcd
# 
# Track frame offsets:
#     150
#     17512
#     35286
#     51612
#     67433
#     83771
#     106057
#     127697
#     142048
#     157995
#     172312
#     190051
# 
# Disc length: 2798
# 
# Revision: 1
# Processed by: cddbd v1.5.2PL0 Copyright (c) Steve Scherf et al.
# Submitted via: fre:ac v1.0.31
# 
DISCID=a20aec0c
DTITLE=Motionless In White - Infamous
DYEAR=2012
DGENRE=Metal
TTITLE0=Black Damask [The Fog]
TTITLE1=Devil's Night
TTITLE2=A-M-E-R-I-C-A
TTITLE3=Burned At Both Ends
TTITLE4=The Divine Infection
TTITLE5=Puppets 2 [The Rain] [FT. Bjorn Speed Strid]
TTITLE6=Sinematic
TTITLE7=If It's Dead, We'll Kill It [FT. Brandan Schieppati]
TTITLE8=Synthetic Love
TTITLE9=Hatefuck
TTITLE10=Underdog
TTITLE11=Infamous
EXTD=YEAR: 2012
EXTT0=
EXTT1=
EXTT2=
EXTT3=
EXTT4=
EXTT5=
EXTT6=
EXTT7=
EXTT8=
EXTT9=
EXTT10=
EXTT11=
PLAYORDER=
